P2
8 12
255
 20 30  0 10 20 30  0 10
 30  0 10 20 30  0 10 20
  0 10 20 30  0 10 20 30
 10 20 30  0 10 20 30  0
 20 30  0 10 20 30  0 10
 30  0 10 20 30  0 10 20
  0 10 20 30  0 10 20 30
 10 20 30  0 10 20 30  0
 20 30  0 10 20 30  0 10
 30  0 10 20 30  0 10 20
  0 10 20 30  0 10 20 30
 10 20 30  0 10 20 30  0
